<svg xmlns="http://www.w3.org/2000/svg" viewBox="0 0 100 100">
  <!-- Antennae -->
  <path d="M70,30 Q90,10 95,5" fill="none" stroke="#00C2B8" stroke-width="1.5" stroke-linecap="round"/>
  <path d="M72,32 Q95,15 100,15" fill="none" stroke="#00C2B8" stroke-width="1" stroke-linecap="round"/>
  
  <!-- Body Segment 1 (Head) -->
  <path d="M60,30 C75,25 80,35 75,45 C70,55 55,50 50,40 Z" fill="#35F3FF" opacity="0.9"/>
  
  <!-- Body Segment 2 -->
  <path d="M52,38 C60,35 65,45 60,52 C55,60 45,55 42,45 Z" fill="#00C2B8" opacity="0.9"/>
  
  <!-- Body Segment 3 -->
  <path d="M44,43 C50,40 55,50 50,58 C45,65 35,60 34,50 Z" fill="#35F3FF" opacity="0.9"/>
  
  <!-- Body Segment 4 -->
  <path d="M36,48 C42,45 45,55 40,63 C35,70 25,65 26,55 Z" fill="#00C2B8" opacity="0.9"/>

  <!-- Body Segment 5 -->
  <path d="M28,53 C34,50 35,60 30,68 C25,75 15,70 18,60 Z" fill="#35F3FF" opacity="0.9"/>

  <!-- Tail Fan -->
  <path d="M20,60 L5,75 L15,80 L25,68 Z" fill="#00C2B8"/>
  <path d="M20,60 L10,85 L20,85 L25,68 Z" fill="#35F3FF"/>
  
  <!-- Legs -->
  <path d="M55,50 Q50,65 55,70" fill="none" stroke="#00C2B8" stroke-width="1.5" stroke-linecap="round"/>
  <path d="M47,56 Q42,70 47,75" fill="none" stroke="#00C2B8" stroke-width="1.5" stroke-linecap="round"/>
  <path d="M39,62 Q34,75 39,80" fill="none" stroke="#00C2B8" stroke-width="1.5" stroke-linecap="round"/>
  
  <!-- Eye -->
  <circle cx="72" cy="35" r="2" fill="#021220"/>
  <circle cx="73" cy="34" r="0.8" fill="#ffffff"/>
</svg>
